<svg xmlns="http://www.w3.org/2000/svg" width="141.371" height="58.166"><g fill="#ed193f"><path d="M19.825 33.335c-8.647 0-15.683-6.534-15.683-14.558S11.178 4.218 19.825 4.218h21.108V1.73a1.71 1.71 0 00-1.71-1.71H19.9C8.926.02 0 8.439 0 18.796S8.926 37.57 19.9 37.57h19.323a1.71 1.71 0 001.71-1.71v-2.529H19.825z"/><path d="M19.9 10.273h19.323a1.712 1.712 0 001.71-1.71V5.988H19.825c-7.67 0-13.917 5.736-13.917 12.788s6.243 12.792 13.917 12.792h21.108v-2.534a1.71 1.71 0 00-1.71-1.71H19.9c-5.322 0-9.647-3.823-9.647-8.527s4.329-8.524 9.647-8.524z"/></g><g fill="#ed193f"><path d="M87.977 0h-2.783v29.631a.49.49 0 01-.734.423l-32.8-19.139a.487.487 0 00-.734.423v26.274h2.806a1.152 1.152 0 001.152-1.148V17.74l32.509 19.33a1.161 1.161 0 001.383-.159 1.139 1.139 0 00.355-.829V1.152A1.155 1.155 0 0087.977 0z"/><path d="M49.153 8.26a.487.487 0 01.733-.423l32.806 19.139a.488.488 0 00.734-.423V0H80.56a1.155 1.155 0 00-1.152 1.152V19.9L47.02.7a1.141 1.141 0 00-.586-.163 1.155 1.155 0 00-1.152 1.152v34.7a1.185 1.185 0 001.331 1.216h2.543V8.26z"/></g><path d="M130.176 29.332a.425.425 0 00-.359-.2h-25.114a.424.424 0 00-.355.2l-5.162 8.252h3.89a1.023 1.023 0 00.873-.482l3-4.776 20.474-.016 3.062 4.8a1.033 1.033 0 00.873.478h4.038z" fill="#ed193f"/><path d="M141.203 35.99L118.413.502a1.032 1.032 0 00-1.726-.016L92.848 35.974a1.03 1.03 0 00.857 1.607h3.376l19.932-31.167a.426.426 0 01.714 0l19.793 31.162h2.818a1.034 1.034 0 00.865-1.586z" fill="#ed193f"/><path d="M128.511 26.709L117.716 9.727a.426.426 0 00-.714 0l-10.959 16.978a.422.422 0 00.355.65h21.754a.421.421 0 00.359-.646zm-7.116-3.273h-7.993a.5.5 0 01-.427-.761l3.891-6.315a.5.5 0 01.841-.012l4.106 6.315a.5.5 0 01-.418.773z" fill="#ed193f" fill-rule="evenodd"/><path d="M12.138 42.926a1.327 1.327 0 11-1.327 1.343 1.326 1.326 0 011.327-1.343zm-1.068 11.92v-7.965h2.153v7.965zm6.55-.001h-2.153V46.88h2.089v.989a2.648 2.648 0 012.3-1.2c1.977 0 2.882 1.407 2.882 3.157v5.019h-2.152v-4.646a1.4 1.4 0 00-1.475-1.587 1.5 1.5 0 00-1.491 1.65v4.584zm8.718-.079a1.786 1.786 0 001.859 1.507c1.359 0 2.121-.682 2.121-2.216v-.582a2.528 2.528 0 01-2.214 1.022 3.687 3.687 0 01-3.707-3.871 3.739 3.739 0 013.707-3.887 2.412 2.412 0 012.268 1.084v-.941h2.073v7.108a3.854 3.854 0 01-4.178 4.178 3.67 3.67 0 01-3.871-2.882zm4.018-4.146a1.9 1.9 0 10-1.878 2.025 1.852 1.852 0 001.879-2.025zm4.286 4.225V43.121h2.153v11.724zm14.778-2.623a1.327 1.327 0 001.459 1.216c.714 0 1.052-.371 1.052-.793 0-.355-.243-.646-.857-.777l-1.052-.243a2.44 2.44 0 01-2.236-2.38 2.779 2.779 0 012.978-2.607c2.268 0 3.03 1.443 3.125 2.3l-1.8.407a1.214 1.214 0 00-1.312-1.068c-.566 0-1.021.339-1.021.793 0 .391.291.63.73.714l1.132.243c1.571.323 2.364 1.28 2.364 2.444 0 1.3-1 2.623-3.093 2.623-2.4 0-3.221-1.555-3.321-2.46zm18.704 1.184c0 .534.032 1.116.064 1.439h-2.057a5.586 5.586 0 01-.08-.921 2.5 2.5 0 01-2.236 1.116 4.191 4.191 0 01-.064-8.356 2.388 2.388 0 012.252.989v-4.548h2.121zm-4.046-.291a2.022 2.022 0 001.957-2.284 1.973 1.973 0 00-1.957-2.216 2.269 2.269 0 000 4.5zm13.534-.554a3.591 3.591 0 01-3.628 2.527 4.232 4.232 0 01-.2-8.451c2.46 0 3.935 1.571 3.935 4.13 0 .307-.032.63-.032.666h-5.7A1.941 1.941 0 0074 53.247a1.759 1.759 0 001.814-1.216zM75.6 49.954a1.6 1.6 0 00-1.782-1.571 1.724 1.724 0 00-1.782 1.571zm6.544-3.95v.873h1.8v1.843h-1.8v6.119h-2.169V48.72h-1.327v-1.846h1.327v-.9a2.744 2.744 0 012.9-2.962 3.055 3.055 0 011.068.163v1.814a2.431 2.431 0 00-.682-.08 1.01 1.01 0 00-1.117 1.095zm4.377-3.078a1.327 1.327 0 11-1.327 1.343 1.326 1.326 0 011.327-1.343zm-1.068 11.92v-7.965h2.153v7.965zm6.55-.001H89.85V46.88h2.089v.989a2.653 2.653 0 012.3-1.2c1.977 0 2.882 1.407 2.882 3.157v5.019h-2.153v-4.646a1.4 1.4 0 00-1.475-1.587 1.5 1.5 0 00-1.491 1.65zm8.359-11.919a1.327 1.327 0 11-1.327 1.343 1.325 1.325 0 011.327-1.343zm-1.068 11.92v-7.965h2.153v7.965zm7.084-7.965h1.6v1.91h-1.6v3.337c0 .7.323.925.941.925a3.21 3.21 0 00.666-.064v1.782a3.218 3.218 0 01-1.216.2 2.308 2.308 0 01-2.527-2.46v-3.707h-1.444v-1.91h.4a1.149 1.149 0 001.232-1.264v-1.121h1.941v2.372zm4.432-3.955a1.327 1.327 0 11-1.327 1.343 1.326 1.326 0 011.327-1.343zm-1.067 11.92v-7.965h2.153v7.965zm8.885 0h-2.153l-3.253-7.965h2.364l1.977 5.342 1.894-5.342h2.268zm11.932-3.983a4.178 4.178 0 11-4.178-4.226 4.09 4.09 0 014.178 4.226zm-2.153 0a2.038 2.038 0 10-2.025 2.268 2.046 2.046 0 002.025-2.268zm-88.686-4.955h1.913l.9-1.216.921 1.216h1.961l-1.535-2.057h-2.619zm6.689 4.86c0-2.559-1.475-4.13-3.935-4.13a4.232 4.232 0 00.2 8.451 3.586 3.586 0 003.628-2.527l-1.8-.534a1.759 1.759 0 01-1.814 1.216 1.944 1.944 0 01-2.009-1.814h5.7c-.002-.032.03-.355.03-.662zm-5.685-.813a1.724 1.724 0 011.782-1.571 1.6 1.6 0 011.782 1.571z" fill="#2c307b"/></svg>